<?xml version="1.0" encoding="UTF-8"?>
<svg version="1.1" xmlns="http://www.w3.org/2000/svg" width="1236" height="840">
<path d="M0 0 C1.83025804 -0.00131032 3.66051553 -0.00394089 5.49077004 -0.0077675 C10.48956567 -0.01443996 15.48816656 -0.00252465 20.4869374 0.01256669 C25.88894039 0.02556977 31.29093315 0.02113457 36.69294739 0.01885986 C46.04216406 0.01728982 55.39131774 0.02667084 64.74051857 0.04357338 C78.25774279 0.06799538 91.77493667 0.07577193 105.29218056 0.07953735 C127.22509299 0.08609681 149.15797187 0.10604427 171.09086609 0.13444519 C192.39164825 0.16199884 213.69241427 0.18322603 234.99320984 0.19596863 C236.96398431 0.19715088 236.96398431 0.19715088 238.9745724 0.19835702 C245.56602952 0.20227225 252.1574867 0.20606334 258.74894392 0.20979273 C313.39752898 0.24087291 368.04607305 0.29452288 422.69462585 0.36076355 C422.69462585 26.10076355 422.69462585 51.84076355 422.69462585 78.36076355 C387.38462585 78.36076355 352.07462585 78.36076355 315.69462585 78.36076355 C315.69462585 122.91076355 315.69462585 167.46076355 315.69462585 213.36076355 C325.26462585 213.36076355 334.83462585 213.36076355 344.69462585 213.36076355 C344.69462585 178.38076355 344.69462585 143.40076355 344.69462585 107.36076355 C370.43462585 107.36076355 396.17462585 107.36076355 422.69462585 107.36076355 C422.69462585 142.34076355 422.69462585 177.32076355 422.69462585 213.36076355 C431.93462585 213.36076355 441.17462585 213.36076355 450.69462585 213.36076355 C450.69462585 178.38076355 450.69462585 143.40076355 450.69462585 107.36076355 C476.43462585 107.36076355 502.17462585 107.36076355 528.69462585 107.36076355 C528.69462585 142.34076355 528.69462585 177.32076355 528.69462585 213.36076355 C537.93462585 213.36076355 547.17462585 213.36076355 556.69462585 213.36076355 C556.69462585 178.38076355 556.69462585 143.40076355 556.69462585 107.36076355 C582.76462585 107.36076355 608.83462585 107.36076355 635.69462585 107.36076355 C635.69462585 142.34076355 635.69462585 177.32076355 635.69462585 213.36076355 C644.93462585 213.36076355 654.17462585 213.36076355 663.69462585 213.36076355 C663.68938904 210.15494568 663.68415222 206.94912781 663.67875671 203.64616394 C663.66222311 193.08095409 663.65115556 182.51574367 663.64281368 171.95052433 C663.63758419 165.54177227 663.63048535 159.1330334 663.6191864 152.72428894 C663.60835986 146.54516914 663.60234952 140.36606207 663.59974861 134.18693352 C663.59789394 131.82370745 663.59427253 129.46048211 663.5888958 127.09726143 C663.58168847 123.79974459 663.58063478 120.50228108 663.58110046 117.20475769 C663.57750519 116.21717468 663.57390991 115.22959167 663.57020569 114.21208191 C663.57158035 113.31880692 663.57295502 112.42553192 663.57437134 111.50518799 C663.57344954 110.72442933 663.57252775 109.94367067 663.57157803 109.13925266 C663.69462585 107.36076355 663.69462585 107.36076355 664.69462585 106.36076355 C667.07269752 106.26311546 669.42170308 106.23079008 671.80023193 106.24050903 C672.55063751 106.23965302 673.30104309 106.238797 674.07418823 106.23791504 C676.61574115 106.23624987 679.15722927 106.24179957 681.69877625 106.24723816 C683.54116279 106.24754425 685.38354945 106.24741142 687.22593594 106.2468729 C692.17765461 106.24664634 697.12934932 106.25245896 702.08106232 106.25948334 C706.72076496 106.26516144 711.36046166 106.26544554 716.00016785 106.26615906 C729.58582371 106.27141474 743.17147508 106.28537578 756.75712585 106.29826355 C802.26618835 106.32920105 802.26618835 106.32920105 848.69462585 106.36076355 C848.69462585 167.41076355 848.69462585 228.46076355 848.69462585 291.36076355 C647.06462585 291.36076355 445.43462585 291.36076355 237.69462585 291.36076355 C237.69462585 256.38076355 237.69462585 221.40076355 237.69462585 185.36076355 C193.14462585 185.36076355 148.59462585 185.36076355 102.69462585 185.36076355 C102.69462585 220.34076355 102.69462585 255.32076355 102.69462585 291.36076355 C42.30462585 291.36076355 -18.08537415 291.36076355 -80.30537415 291.36076355 C-80.30537415 265.62076355 -80.30537415 239.88076355 -80.30537415 213.36076355 C-45.65537415 213.36076355 -11.00537415 213.36076355 24.69462585 213.36076355 C24.69462585 204.12076355 24.69462585 194.88076355 24.69462585 185.36076355 C-9.95537415 185.36076355 -44.60537415 185.36076355 -80.30537415 185.36076355 C-80.30537415 159.29076355 -80.30537415 133.22076355 -80.30537415 106.36076355 C24.63462585 106.36076355 129.57462585 106.36076355 237.69462585 106.36076355 C237.69462585 97.12076355 237.69462585 87.88076355 237.69462585 78.36076355 C132.75462585 78.36076355 27.81462585 78.36076355 -80.30537415 78.36076355 C-80.30537415 54.49011287 -75.26005166 36.51287545 -58.30537415 19.36076355 C-41.33212347 4.10632307 -22.19184215 -0.1189876 0 0 Z M741.69462585 185.36076355 C741.69462585 194.60076355 741.69462585 203.84076355 741.69462585 213.36076355 C751.26462585 213.36076355 760.83462585 213.36076355 770.69462585 213.36076355 C770.69462585 204.12076355 770.69462585 194.88076355 770.69462585 185.36076355 C761.12462585 185.36076355 751.55462585 185.36076355 741.69462585 185.36076355 Z " fill="#A46B33" transform="translate(233.3053741455078,109.63923645019531)"/>
<path d="M0 0 C60.72 0 121.44 0 184 0 C184 25.74 184 51.48 184 78 C149.02 78 114.04 78 78 78 C78 122.55 78 167.1 78 213 C122.55 213 167.1 213 213 213 C213 142.71 213 72.42 213 0 C238.74 0 264.48 0 291 0 C291 34.98 291 69.96 291 106 C370.53 106 450.06 106 532 106 C532 96.76 532 87.52 532 78 C461.71 78 391.42 78 319 78 C319 52.26 319 26.52 319 0 C450.34 0 581.68 0 717 0 C717 25.74 717 51.48 717 78 C681.69 78 646.38 78 610 78 C610 112.98 610 147.96 610 184 C575.02 184 540.04 184 504 184 C504 219.31 504 254.62 504 291 C442.95 291 381.9 291 319 291 C319 255.69 319 220.38 319 184 C309.76 184 300.52 184 291 184 C291 219.31 291 254.62 291 291 C233.92642543 291.16121214 233.92642543 291.16121214 209.97460938 291.1953125 C204.5021968 291.20316626 199.02978465 291.21122465 193.55737305 291.21972656 C192.87157423 291.22078156 192.18577542 291.22183655 191.47919482 291.22292352 C180.43343469 291.24028128 169.38775856 291.27179454 158.3420481 291.30861118 C146.99100244 291.34612765 135.64001871 291.36795932 124.28890711 291.37635398 C117.91952545 291.38155479 111.55033372 291.3937224 105.18101311 291.42292023 C99.17692092 291.45021888 93.17309557 291.45841585 87.16894722 291.45243073 C84.97409232 291.45352452 82.77922781 291.46139161 80.58442688 291.4768219 C65.28097754 291.57906679 51.51799614 290.55473879 37.6875 283.3125 C37.02435791 282.9729126 36.36121582 282.6333252 35.67797852 282.28344727 C29.61615787 279.04265645 24.81173938 274.89238305 20 270 C19.37996094 269.46117187 18.75992188 268.92234375 18.12109375 268.3671875 C9.4253017 260.62462545 4.41557033 248.90280924 1 238 C0.67 237.01 0.34 236.02 0 235 C-0.08882271 233.65589853 -0.12376548 232.30780735 -0.12304783 230.96077442 C-0.1260344 229.72391776 -0.1260344 229.72391776 -0.12908131 228.4620741 C-0.12616847 227.55643978 -0.12325563 226.65080545 -0.12025452 225.71772766 C-0.12110894 224.75552958 -0.12196337 223.7933315 -0.12284368 222.80197591 C-0.12449655 219.56368466 -0.11898023 216.32544471 -0.11352539 213.0871582 C-0.11324345 210.77147421 -0.11340138 208.45579014 -0.1139679 206.1401062 C-0.11425561 199.84089018 -0.1083631 193.54169308 -0.10139394 187.24248147 C-0.09515605 180.66411195 -0.09455625 174.08574202 -0.09336853 167.50737 C-0.090777 156.46185985 -0.08435796 145.41635636 -0.07543945 134.37084961 C-0.06626234 122.99324579 -0.05919443 111.61564387 -0.05493164 100.23803711 C-0.05466364 99.52972789 -0.05439565 98.82141867 -0.05411953 98.09164554 C-0.05180672 91.93050567 -0.0496539 85.76936575 -0.04751682 79.60822582 C-0.03810487 53.072144 -0.01818509 26.53608062 0 0 Z M397 184 C397 193.57 397 203.14 397 213 C406.57 213 416.14 213 426 213 C426 203.43 426 193.86 426 184 C416.43 184 406.86 184 397 184 Z " fill="#9F612D" transform="translate(154,439)"/>
<path d="M0 0 C25.74 0 51.48 0 78 0 C78 96.03 78 192.06 78 291 C-18.03 291 -114.06 291 -213 291 C-213 265.26 -213 239.52 -213 213 C-177.69 213 -142.38 213 -106 213 C-106 178.02 -106 143.04 -106 107 C-80.26 107 -54.52 107 -28 107 C-28 141.98 -28 176.96 -28 213 C-18.76 213 -9.52 213 0 213 C0 142.71 0 72.42 0 0 Z " fill="#B08445" transform="translate(899,439)"/>
<path d="M0 0 C42.67648876 -0.08824679 85.3528912 -0.16207844 128.02944515 -0.20426132 C133.07228325 -0.20926391 138.11512117 -0.21444122 143.15795898 -0.21972656 C144.16186151 -0.2207758 145.16576403 -0.22182505 146.20008784 -0.22290608 C162.43713227 -0.24029272 178.67411982 -0.27182079 194.91113055 -0.30861118 C211.58227238 -0.3460691 228.2533845 -0.3682461 244.92456669 -0.37635398 C255.20458675 -0.3818317 265.48444602 -0.39910806 275.76441657 -0.43166587 C282.82186175 -0.45287368 289.87922428 -0.45918591 296.93669898 -0.45400551 C301.00337751 -0.45145345 305.06977583 -0.45525671 309.13640404 -0.4768219 C312.86963951 -0.4964731 316.60240981 -0.49715172 320.33566796 -0.48359558 C322.30495423 -0.48113955 324.27423608 -0.49822433 326.24344069 -0.51632524 C345.06553271 -0.39179747 361.99931552 6.38427532 376 19 C376.63421875 19.55300781 377.2684375 20.10601562 377.921875 20.67578125 C383.0226232 25.40412969 386.51426252 31.02196022 390 37 C390.391875 37.65742188 390.78375 38.31484375 391.1875 38.9921875 C398.09231997 51.5611176 398 63.51950459 398 78 C266.66 78 135.32 78 0 78 C0 52.26 0 26.52 0 0 Z " fill="#B18446" transform="translate(684,110)"/>
<path d="M0 0 C25.74 0 51.48 0 78 0 C78.06624367 28.40834437 78.12159473 56.81662829 78.15319599 85.22503087 C78.15694772 88.58548621 78.16083072 91.94594139 78.16479492 95.30639648 C78.16558185 95.97535015 78.16636878 96.64430382 78.16717956 97.33352881 C78.18020275 108.13868645 78.2038394 118.94379579 78.23145839 129.74892486 C78.25959881 140.85136409 78.27597016 151.95378373 78.28226548 163.05625767 C78.28616555 169.2858754 78.29528791 175.51538389 78.31719017 181.74496651 C78.33766903 187.61770472 78.34381086 193.49028947 78.33932304 199.36306 C78.34014317 201.5095319 78.34604041 203.65600934 78.35761642 205.80245018 C78.48564405 230.78305536 74.10414674 252.55209515 56.04296875 271.10546875 C40.02434781 286.78227625 21.8349398 291 0 291 C0 194.97 0 98.94 0 0 Z " fill="#B89350" transform="translate(1005,439)"/>
<path d="M0 0 C25.74 0 51.48 0 78 0 C78 25.41 78 50.82 78 77 C52.26 77 26.52 77 0 77 C0 51.59 0 26.18 0 0 Z " fill="#985121" transform="translate(260,546)"/>
<path d="M0 0 C25.74 0 51.48 0 78 0 C78 25.41 78 50.82 78 77 C52.26 77 26.52 77 0 77 C0 51.59 0 26.18 0 0 Z " fill="#9C5A28" transform="translate(365,324)"/>
</svg>
